# xmcd
#
# Track frame offsets:
#   150
#   15300
#   28875
#   43425
#   55350
#   69150
#   85650
#   99525
#   112950
#   126450
#   143100
#   157950
#   171375
#   185400
#   199200
#   213075
#   225600
#   239625
#   256275
#   269850
#   283350
#   298875
#   315600
#   330375
#
# Disc length: 4620 seconds
#
# Revision: 0
# Processed by: cddbd v1.5.1PL0 Copyright (c) Steve Scherf et al.
# Submitted via: BirdCage ASPI Rip 3.0.1
#
DISCID=72120a18
DTITLE=Gaby Albrecht - Gaby
DYEAR=2005
DGENRE=Blues
TTITLE0=Deinen Traum gib niemals auf
TTITLE1=Das Paradies gleich neben Dir
TTITLE2=Sei still, mein Herz
TTITLE3=Behüt dich Gott vergib mein nicht
TTITLE4=Bluten eines Baums
TTITLE5=Das Lied meiner Berge
TTITLE6=Nie Wieder AIlein
TTITLE7=Das Wunder der Liebe
TTITLE8=Der Hirte mit der Ziehharmonika
TTITLE9=Die Birke
TTITLE10=Ein neuer Stern
TTITLE11=Einmal Mit Dir
TTITLE12=Gleich hintern Horizont
TTITLE13=Glückstag
TTITLE14=Herzen lügen nicht
TTITLE15=Im Dorfkrug nebenan
TTITLE16=Irgendwann
TTITLE17=Komm und Leb Heut
TTITLE18=La Rosa di Montana
TTITLE19=Liebe Braucht Zeit
TTITLE20=Man spielt nicht mit der Liebe
TTITLE21=Nachts schlafen die Berge
TTITLE22=Weist du noch
TTITLE23=Weist du noch
EXTD=
EXTT0=
EXTT1=
EXTT2=
EXTT3=
EXTT4=
EXTT5=
EXTT6=
EXTT7=
EXTT8=
EXTT9=
EXTT10=
EXTT11=
EXTT12=
EXTT13=
EXTT14=
EXTT15=
EXTT16=
EXTT17=
EXTT18=
EXTT19=
EXTT20=
EXTT21=
EXTT22=
EXTT23=
PLAYORDER=
